<svg width="26" height="26" fill="none" xmlns="http://www.w3.org/2000/svg"><g clip-path="url(#a)"><path d="M13 26c7.18 0 13-5.82 13-13S20.18 0 13 0 0 5.82 0 13s5.82 13 13 13Z" fill="#F0F0F0"/><path d="M12.435 13H26c0-1.173-.156-2.31-.448-3.391H12.435V13ZM12.435 6.218h11.657a13.068 13.068 0 0 0-3-3.392h-8.657v3.392ZM13 26c3.06 0 5.872-1.058 8.092-2.826H4.908A12.944 12.944 0 0 0 13 26ZM1.908 19.783h22.184a12.92 12.92 0 0 0 1.46-3.391H.448c.326 1.209.821 2.348 1.46 3.39Z" fill="#D80027"/><path d="M6.022 2.03h1.185l-1.102.8.42 1.296-1.101-.8-1.102.8.363-1.119c-.97.808-1.82 1.755-2.521 2.81h.38l-.702.51c-.11.182-.214.367-.315.555l.335 1.031-.624-.454c-.156.33-.298.666-.426 1.01l.37 1.135h1.361l-1.101.8.42 1.296-1.101-.8-.66.479C.033 11.91 0 12.451 0 13h13V0c-2.568 0-4.962.745-6.978 2.03Zm.503 9.67-1.101-.8-1.102.8.42-1.295-1.101-.8h1.362l.42-1.296.421 1.295h1.363l-1.102.8.42 1.296Zm-.42-5.082.42 1.295-1.101-.8-1.102.8.42-1.295-1.101-.8h1.362l.42-1.296.421 1.295h1.363l-1.102.8Zm5.083 5.082-1.101-.8-1.102.8.42-1.295-1.101-.8h1.362l.42-1.296.421 1.295h1.363l-1.102.8.42 1.296Zm-.42-5.082.42 1.295-1.101-.8-1.102.8.42-1.295-1.101-.8h1.362l.42-1.296.421 1.295h1.363l-1.102.8Zm0-3.787.42 1.295-1.101-.8-1.102.8.42-1.295-1.101-.8h1.362l.42-1.296.421 1.295h1.363l-1.102.8Z" fill="#0052B4"/></g><defs><clipPath id="a"><path fill="#fff" d="M0 0h26v26H0z"/></clipPath></defs></svg>